<svg xmlns="http://www.w3.org/2000/svg" width="206" height="139" fill="none" viewBox="0 0 206 139"><mask id="a" fill="#fff"><path d="M121.473 0c20.96 0 38.231 16.328 40.587 37.361C186.763 40.106 206 61.745 206 88.033c0 27.761-21.453 50.338-48.142 50.953V139H30.228v-.023C13.434 138.367 0 124.091 0 106.566c0-17.912 14.035-32.432 31.348-32.432h.007c.299-23.084 18.475-41.7 40.857-41.7 3.19 0 6.295.378 9.274 1.093C85.382 14.377 101.804 0 121.473 0"/></mask><path fill="#2fc7f7" d="M121.473 0v-8zm40.587 37.361-7.951.89.712 6.355 6.355.706zM206 88.033h8zm-48.142 50.953-.184-7.998-7.816.181v7.817zm0 .014v8h8v-8zm-127.63 0h-8v8h8zm0-.023h8v-7.715l-7.71-.28zM0 106.566h-8zm31.348-32.432v-8zm.007 0-.002 8 7.898.001.103-7.898zm40.857-41.7v-8zm9.274 1.093-1.867 7.78 8.055 1.933 1.652-8.118zM121.473 0v8c16.626 0 30.705 13.003 32.636 30.252l7.951-.89 7.95-.89C167.231 11.653 146.768-8 121.473-8zm40.587 37.361-.884 7.951C181.659 47.588 198 65.65 198 88.033h16c0-30.192-22.132-55.409-51.057-58.623zM206 88.033h-8c0 23.655-18.218 42.446-40.326 42.955l.184 7.998.185 7.998c31.27-.721 55.957-27.083 55.957-58.95zm-48.142 50.953h-8V139h16v-.014zm0 .014v-8H30.228v16h127.63zm-127.63 0h8v-.023h-16V139zm0-.023.29-7.995C18.253 130.536 8 120.014 8 106.566H-8c0 21.602 16.617 39.631 37.938 40.405zM0 106.566h8c0-13.752 10.708-24.432 23.348-24.432v-16C9.362 66.134-8 84.494-8 106.566zm31.348-32.432v8h.004l.003-8 .001-8h-.008zm.007 0 7.999.103c.246-18.966 15.11-33.803 32.858-33.803v-16c-27.016 0-48.504 22.396-48.857 49.596zm40.857-41.7v8c2.555 0 5.033.302 7.407.872l1.867-7.779 1.868-7.779a47.7 47.7 0 0 0-11.142-1.314zm9.274 1.093 7.84 1.595C92.516 19.44 105.867 8 121.473 8V-8C97.742-8 78.249 9.314 73.647 31.933z" mask="url(#a)"/></svg>