<svg xmlns="http://www.w3.org/2000/svg" width="165" height="32" fill="none" viewBox="0 0 165 32"><path fill="#181a1f" d="M39.145 13.715h2.247v11.231h3.746V10.39h-5.993zm8.49 3.953c0 4.643 3.122 7.718 7.43 7.718 1.248 0 2.622-.189 3.933-1.067v-4.141c-.75.753-1.935 1.568-3.434 1.568-2.31 0-3.683-1.757-3.683-3.953 0-2.384 1.498-4.204 3.683-4.204 1.561 0 2.685.879 3.434 1.757v-4.204a7.4 7.4 0 0 0-3.996-1.192c-3.995 0-7.367 2.824-7.367 7.718m28.907-1.631h-2.123V13.84h6.618v-3.513H70.36v14.557h6.18c1.062 0 5.682.062 5.682-4.518 0-4.33-4.62-4.33-5.681-4.33m-.438 5.96h-1.748v-3.012h1.748c1.311 0 2.06.377 2.06 1.506s-.749 1.506-2.06 1.506m12.112-2.886v-8.722h-3.933v14.557h3.996l5.619-8.721v8.721h3.933V10.39h-3.996zm11.238-5.27h3.184v11.043h4.058V13.84h3.184v-3.513H99.454zm18.23-3.452h-6.118v14.557h4.058v-4.831h2.06c4.121 0 5.307-2.886 5.307-4.894-.062-2.008-1.186-4.832-5.307-4.832m-.936 6.526h-1.186v-3.326h1.186c1.748 0 1.998.942 1.998 1.694 0 .565-.188 1.632-1.998 1.632m11.8 2.196v-8.722h-3.934v14.557h3.996l5.619-8.721v8.721h3.933V10.39h-3.996zm25.16-8.722h-4.745l-4.37 6.087v-6.087h-4.058v14.557h4.058v-6.274l4.183 6.274h5.057l-5.682-7.53zm7.429 3.2c1.561 0 2.685.879 3.434 1.757v-4.204a7.4 7.4 0 0 0-3.996-1.192c-3.933 0-7.367 2.824-7.367 7.718 0 4.643 3.122 7.718 7.43 7.718 1.248 0 2.622-.189 3.933-1.067v-4.141c-.749.753-1.935 1.568-3.434 1.568-2.31 0-3.683-1.757-3.683-3.953 0-2.447 1.436-4.204 3.683-4.204m-96.52 1.757a2.377 2.377 0 0 0-2.373 2.385 2.377 2.377 0 0 0 2.373 2.384 2.377 2.377 0 0 0 2.372-2.384 2.377 2.377 0 0 0-2.372-2.385"/><mask id="a" width="32" height="32" x="0" y="0" maskUnits="userSpaceOnUse" style="mask-type:alpha"><circle cx="16" cy="16" r="16" fill="#c4c4c4"/></mask><g mask="url(#a)"><path fill="#f0000a" d="M16 0a15.3 15.3 0 0 0-3.451.376V16A3.44 3.44 0 0 0 16 19.451 3.44 3.44 0 0 0 19.451 16c0-1.82-1.443-3.325-3.263-3.451v-2.76c3.326.125 6.024 2.886 6.024 6.274 0 3.45-2.824 6.274-6.275 6.274-3.45 0-6.274-2.823-6.274-6.274V1.255l-1.13.565V16c0 4.078 3.326 7.404 7.404 7.404 4.079 0 7.404-3.326 7.404-7.404 0-4.016-3.2-7.278-7.216-7.404v-2.76c5.522.125 9.977 4.642 9.977 10.227 0 5.647-4.58 10.227-10.228 10.227S5.647 21.71 5.647 16.063V3.639C2.26 6.59 0 11.043 0 16c0 8.847 7.153 16 16 16s16-7.153 16-16S24.847 0 16 0"/></g></svg>