<svg xmlns="http://www.w3.org/2000/svg" width="124" height="22" fill="none" viewBox="0 0 124 22"><path fill="#00bef2" d="M3.178 13.642V8.607H4.4c1.083 0 1.98.123 2.614.493.665.37 1.02 1.047 1.02 2.048 0 1.709-1.051 2.51-3.448 2.51H3.178zM.225 16.06h4.299c4.763 0 6.51-2.094 6.51-4.99 0-1.97-.834-3.279-2.273-4.049-1.144-.616-2.644-.8-4.407-.8H3.178V2.387h6.465L10.432 0H.225zm12.758 0h2.83l3.62-5.19c.68-.97 1.221-1.878 1.546-2.417h.046a37 37 0 0 0-.092 2.48v5.111h2.86V4.542h-2.83l-3.618 5.19a50 50 0 0 0-1.547 2.417h-.046c.046-.678.092-1.556.092-2.48V4.543h-2.86zm15.729 0h2.907V6.944h3.418l.758-2.417h-10.61v2.417h3.527zm8.15 5.758h2.907v-5.79a6.2 6.2 0 0 0 1.779.263c3.619 0 6.016-2.51 6.016-6.036 0-3.68-2.18-6.02-6.341-6.02-1.593 0-3.109.292-4.377.723v16.86zm2.907-8.222V6.82c.433-.123.85-.2 1.377-.2 2.072 0 3.448 1.17 3.448 3.634 0 2.217-1.098 3.633-3.247 3.633a4 4 0 0 1-1.578-.292m9.511 2.464h2.83l3.62-5.19c.68-.97 1.221-1.878 1.546-2.417h.046a37 37 0 0 0-.093 2.48v5.111h2.861V4.542h-2.83l-3.618 5.19a50 50 0 0 0-1.547 2.417h-.046c.046-.678.092-1.556.092-2.48V4.543h-2.86zm13.084 0h2.907v-4.774h1.733c.34 0 .664.324 1.005 1.094l1.469 3.68h3.155l-2.103-4.404c-.372-.755-.758-1.186-1.346-1.417v-.046c.974-.585 1.083-2.233 1.67-3.049a.98.98 0 0 1 .805-.37c.216 0 .463.032.664.093V4.404c-.34-.124-.881-.17-1.206-.17-1.005 0-1.67.385-2.134 1.017-.959 1.385-.928 3.803-2.366 3.803H65.27V4.542h-2.907zm16.81.23c1.593 0 3.032-.492 3.96-1.123l-.85-2.002c-.805.43-1.61.785-2.692.785-1.98 0-3.278-1.293-3.278-3.65 0-2.124 1.268-3.725 3.417-3.725 1.13 0 2.01.323 2.815.908V5.02c-.619-.385-1.67-.786-3.109-.786-3.448 0-6.108 2.556-6.108 6.144 0 3.341 2.072 5.913 5.846 5.913"/><path fill="#006198" d="M90.257 0c3.472 0 5.155 1.79 5.155 4.227 0 4.565-6.25 5.444-7.254 9.516h7.393v2.5H84.346c.648-8.083 7.948-8.33 7.964-11.723 0-1.497-1.189-2.052-2.485-2.052-1.636 0-2.98.54-4.152 1.095l-.787-2.267C86.198.663 88.066 0 90.256 0m15.696.046v9.872h2.393v2.39h-2.393v3.934h-2.886V12.31H95.89v-1.944l7.963-10.32zM117.558 0a6.305 6.305 0 0 1 6.303 6.303 6.306 6.306 0 0 1-6.303 6.303c-3.474 0-6.32-2.818-6.303-6.306a6.305 6.305 0 0 1 6.303-6.3m0 1.454a4.85 4.85 0 0 0-4.848 4.847c-.013 2.683 2.176 4.85 4.848 4.85a4.85 4.85 0 0 0 4.848-4.848 4.85 4.85 0 0 0-4.848-4.849m-18.426 8.51c.37 0 1.435-.046 2.037-.046h1.898V7.62c0-1.295.108-2.683.139-3.146zm18.957-3.661h3.348v.97h-4.364v-3.88h1.016z"/></svg>