<svg xmlns="http://www.w3.org/2000/svg" width="64" height="64" fill="none" viewBox="0 0 64 64"><path fill="#f0000a" d="M32 0c17.673 0 32 14.327 32 32S49.673 64 32 64 0 49.673 0 32c0-9.58 4.21-18.174 10.88-24.038V32c0 11.664 9.456 21.12 21.12 21.12S53.12 43.664 53.12 32 43.664 10.881 32 10.88v6.4c8.13 0 14.72 6.59 14.72 14.72S40.13 46.72 32 46.72 17.28 40.13 17.28 32V3.58q.942-.488 1.92-.915v29.336c0 7.069 5.73 12.8 12.799 12.8s12.8-5.731 12.8-12.8-5.73-12.8-12.8-12.8v6.4a6.4 6.4 0 1 1-6.4 6.4V.641A32 32 0 0 1 32 0"/></svg>