<svg xmlns="http://www.w3.org/2000/svg" width="90" height="90" fill="none" viewBox="0 0 90 90"><defs><path id="b" fill="#d26665" d="M36 58h15s-.785 5-7.68 5C36.423 63 36 58 36 58"/></defs><mask id="a" width="90" height="90" x="0" y="0" maskUnits="userSpaceOnUse" style="mask-type:alpha"><circle cx="45" cy="45" r="45" fill="#49bafc"/></mask><g mask="url(#a)"><circle cx="45" cy="45" r="45" fill="#383c42"/><path fill="#ffc1b7" d="M44.351 102.96c-7.696 0-13.938-6.242-13.938-13.938V59.355H58.29v29.667c0 7.696-6.241 13.938-13.938 13.938"/><path fill="#d26665" d="M30.4 68.78s7.672 14.261 16.438 13.552C60.39 81.252 58.14 64.465 58.14 64.465S52.88 75.668 44.575 75.68c-9.276 0-14.175-6.9-14.175-6.9"/><path fill="#181a1f" d="m23.55 49.06-1.393-14.1c-1.79-9.014 5.247-13.776 11.39-13.776h21.299c6.527 0 14.286 4.724 10.979 14.895l-1.903 15.368-40.384-2.375z"/><path fill="#ffc1b7" d="M62.492 56.794c4.215 3.12 11.526-11.066 7.41-14.423-4.115-3.358-6.838 2.797-6.838 2.797l-.1 5.21-.609 4.886-.236 1.505.36.025z"/><path stroke="#d26665" stroke-linecap="round" stroke-linejoin="round" stroke-width=".833" d="M68.759 46.648s-3.059-1.02-5.235 3.481"/><path stroke="#d26665" stroke-linecap="round" stroke-linejoin="round" stroke-width=".833" d="M65.017 47.929s3.332 1.777 1.131 4.45"/><path fill="#ffc1b7" d="M25.626 56.794c-4.215 3.12-11.526-11.066-7.41-14.423s6.701 2.86 6.701 2.86l.237 5.147.609 4.886.236 1.505-.36.025z"/><path stroke="#d26665" stroke-linecap="round" stroke-linejoin="round" stroke-width=".833" d="M19.348 46.648s3.058-1.02 5.234 3.481"/><path stroke="#d26665" stroke-linecap="round" stroke-linejoin="round" stroke-width=".833" d="M23.103 47.929s-3.332 1.777-1.132 4.45"/><path fill="#ffc1b7" d="M63.873 38.504c0 8.778-1.17 16.363-2.338 21.734-1.144 5.26-4.352 9.86-8.89 12.819l-.82.535a14.81 14.81 0 0 1-15.878.186c-4.912-3.046-8.356-7.982-9.413-13.627-1.927-10.27-2.138-21.66-2.138-21.66s-1.828-22.169 19.458-21.734c21.287.435 20.019 21.734 20.019 21.734z"/><path fill="#181a1f" d="M64.159 13.388c-6.764-4.787-20.13-1.443-27.417 1.902.15-2.176-1.18-1.94-1.18-1.94-12.807 3.445-9.45 13.54-9.45 13.54l.124.063c-1.343 2.91-3.071 9.089-1.43 20.304 0 0 3.394-12.123 3.494-19.36 5.682 2.513 21.262 8.605 31.42 5.198 1.007 6.18 3.668 14.162 3.668 14.162 1.07-7.261.621-12.446-.1-15.94.622-.435 1.219-.92 1.766-1.492 0 0 8.703-9.648-.883-16.425z"/><path stroke="#d26665" stroke-linecap="round" stroke-linejoin="round" stroke-width=".833" d="M42.274 46.984v7.149c0 .236.05.472.137.684.336.833 1.28 1.23 2.151.995l1.853-.498"/><path fill="#181a1f" d="M37 45c0 1.1-.9 2-2 2s-2-.9-2-2 .9-2 2-2 2 .9 2 2m18 0c0 1.1-.9 2-2 2s-2-.9-2-2 .9-2 2-2 2 .9 2 2"/><path stroke="#d26665" stroke-linecap="round" stroke-linejoin="round" stroke-width=".634" d="m38.532 47.02-4.6 3.035m15.455-3.059 4.066 3.071M43.94 69.315v2.001"/><path fill="#181a1f" d="M39.875 37.606 39.949 34l-6.69.124a3.7 3.7 0 0 0-2.3.858l-2.66 3.059 4.426-.659zm7.821 0L47.62 34l6.69.124a3.7 3.7 0 0 1 2.3.858l2.66 3.059-4.426-.659z"/><mask id="c" width="15" height="5" x="36" y="58" maskUnits="userSpaceOnUse" style="mask-type:alpha"><use href="#b"/></mask><g mask="url(#c)"><use href="#b"/><path fill="#fff" d="M36 57h15s-.785 2-7.68 2C36.423 59 36 57 36 57"/></g><path fill="#fff" d="M61.958 46.884a7.997 7.997 0 0 1-7.995 7.995 7.997 7.997 0 0 1-7.995-7.995 7.997 7.997 0 0 1 7.995-7.995 7.997 7.997 0 0 1 7.995 7.995m-19.658 0a7.997 7.997 0 0 1-7.996 7.995 7.997 7.997 0 0 1-7.994-7.995 7.997 7.997 0 0 1 7.994-7.995 7.997 7.997 0 0 1 7.995 7.995" opacity=".19"/><path stroke="#181a1f" stroke-linecap="round" stroke-linejoin="round" stroke-width=".535" d="M42.3 46.884a7.997 7.997 0 0 1-7.996 7.995 7.997 7.997 0 0 1-7.994-7.995 7.997 7.997 0 0 1 7.994-7.995 7.997 7.997 0 0 1 7.995 7.995m19.659 0a7.997 7.997 0 0 1-7.995 7.995 7.997 7.997 0 0 1-7.995-7.995 7.997 7.997 0 0 1 7.995-7.995 7.997 7.997 0 0 1 7.995 7.995m-19.658 0s1.89-1.766 3.655 0"/><path stroke="#181a1f" stroke-miterlimit="10" stroke-width=".535" d="M26.297 46.884h-1.33m38.557 0h-1.33"/></g></svg>