<svg width="206" height="139" viewBox="0 0 206 139" fill="none" xmlns="http://www.w3.org/2000/svg">
<mask id="path-1-inside-1_40_5288" fill="white">
<path d="M121.473 0C142.433 0 159.704 16.3283 162.06 37.3613C186.763 40.1062 206 61.745 206 88.0332C206 115.794 184.547 138.371 157.858 138.986V139H30.2285V138.977C13.4341 138.367 0 124.091 0 106.566C0.000135497 88.6541 14.0349 74.1339 31.3477 74.1338C31.3499 74.1338 31.3523 74.1338 31.3545 74.1338C31.6538 51.0504 49.8301 32.4336 72.2119 32.4336C75.402 32.4336 78.5066 32.8119 81.4863 33.5273C85.3824 14.3769 101.804 8.36618e-05 121.473 0Z"/>
</mask>
<path d="M121.473 0V-8H121.473L121.473 0ZM162.06 37.3613L154.109 38.2515L154.821 44.6062L161.176 45.3124L162.06 37.3613ZM206 88.0332H214V88.0332L206 88.0332ZM157.858 138.986L157.674 130.988L149.858 131.169V138.986H157.858ZM157.858 139V147H165.858V139H157.858ZM30.2285 139H22.2285V147H30.2285V139ZM30.2285 138.977H38.2285V131.262L30.5188 130.982L30.2285 138.977ZM0 106.566L-8 106.566V106.566H0ZM31.3477 74.1338V66.1338H31.3476L31.3477 74.1338ZM31.3545 74.1338L31.3528 82.1338L39.2514 82.1355L39.3538 74.2375L31.3545 74.1338ZM72.2119 32.4336V24.4336H72.2119L72.2119 32.4336ZM81.4863 33.5273L79.6186 41.3063L87.6741 43.2404L89.3257 35.1222L81.4863 33.5273ZM121.473 0V8C138.099 8 152.178 21.0026 154.109 38.2515L162.06 37.3613L170.01 36.4711C167.231 11.654 146.768 -8 121.473 -8V0ZM162.06 37.3613L161.176 45.3124C181.659 47.5883 198 65.6488 198 88.0332L206 88.0332L214 88.0332C214 57.8413 191.868 32.6241 162.943 29.4103L162.06 37.3613ZM206 88.0332H198C198 111.688 179.782 130.479 157.674 130.988L157.858 138.986L158.043 146.984C189.313 146.263 214 119.901 214 88.0332H206ZM157.858 138.986H149.858V139H157.858H165.858V138.986H157.858ZM157.858 139V131H30.2285V139V147H157.858V139ZM30.2285 139H38.2285V138.977H30.2285H22.2285V139H30.2285ZM30.2285 138.977L30.5188 130.982C18.2516 130.536 8 120.014 8 106.566H0H-8C-8 128.168 8.61652 146.197 29.9382 146.971L30.2285 138.977ZM0 106.566L8 106.566C8.0001 92.8137 18.7075 82.1339 31.3477 82.1338L31.3477 74.1338L31.3476 66.1338C9.36225 66.1339 -7.99983 84.4946 -8 106.566L0 106.566ZM31.3477 74.1338V82.1338C31.349 82.1338 31.3509 82.1338 31.3515 82.1338C31.3519 82.1338 31.3523 82.1338 31.3525 82.1338C31.3527 82.1338 31.3528 82.1338 31.3528 82.1338L31.3545 74.1338L31.3562 66.1338C31.354 66.1338 31.352 66.1338 31.3507 66.1338C31.3489 66.1338 31.3485 66.1338 31.3477 66.1338V74.1338ZM31.3545 74.1338L39.3538 74.2375C39.5998 55.2711 54.4639 40.4336 72.2119 40.4336L72.2119 32.4336L72.2119 24.4336C45.1962 24.4336 23.7079 46.8298 23.3552 74.0301L31.3545 74.1338ZM72.2119 32.4336V40.4336C74.7671 40.4336 77.2449 40.7364 79.6186 41.3063L81.4863 33.5273L83.354 25.7484C79.7683 24.8875 76.0369 24.4336 72.2119 24.4336V32.4336ZM81.4863 33.5273L89.3257 35.1222C92.5163 19.4394 105.867 8.00007 121.473 8L121.473 0L121.473 -8C97.742 -7.9999 78.2485 9.31441 73.6469 31.9325L81.4863 33.5273Z" fill="#2FC7F7" mask="url(#path-1-inside-1_40_5288)"/>
</svg>
