<svg width="16" height="16" viewBox="0 0 16 16" fill="none" xmlns="http://www.w3.org/2000/svg">
<path d="M4 12C5.10457 12 6 12.8954 6 14C6 15.1046 5.10457 16 4 16C2.89543 16 2 15.1046 2 14C2 12.8954 2.89543 12 4 12ZM11 12C12.1046 12 13 12.8954 13 14C13 15.1046 12.1046 16 11 16C9.89543 16 9 15.1046 9 14C9 12.8954 9.89543 12 11 12ZM4 13.5C3.72386 13.5 3.5 13.7239 3.5 14C3.5 14.2761 3.72386 14.5 4 14.5C4.27614 14.5 4.5 14.2761 4.5 14C4.5 13.7239 4.27614 13.5 4 13.5ZM11 13.5C10.7239 13.5 10.5 13.7239 10.5 14C10.5 14.2761 10.7239 14.5 11 14.5C11.2761 14.5 11.5 14.2761 11.5 14C11.5 13.7239 11.2761 13.5 11 13.5ZM3.5 4H14.4834C15.2012 4 15.6849 4.73374 15.4023 5.39355L13.5195 9.78809L13.4561 9.92285C13.1141 10.581 12.4315 10.9998 11.6816 11H4C2.89543 11 2 10.1046 2 9V1.5H0.75C0.335786 1.5 0 1.16421 0 0.75C1.54622e-06 0.335788 0.335787 4.02657e-09 0.75 0H2C2.82843 0 3.5 0.671574 3.5 1.5V4ZM3.5 9C3.5 9.27614 3.72386 9.5 4 9.5H11.6816C11.8814 9.49983 12.0618 9.3808 12.1406 9.19727L13.7246 5.5H3.5V9Z" fill="white"/>
</svg>
