<svg width="64" height="64" viewBox="0 0 64 64" fill="none" xmlns="http://www.w3.org/2000/svg">
<path d="M32 0C49.6731 0 64 14.3269 64 32C64 49.6731 49.6731 64 32 64C14.3269 64 0 49.6731 0 32C0 22.4209 4.21041 13.8264 10.8799 7.96191V32C10.8801 43.664 20.336 53.12 32 53.1201C43.664 53.12 53.1199 43.664 53.1201 32C53.1199 20.336 43.664 10.881 32 10.8809V17.2803C40.1294 17.2804 46.7195 23.8706 46.7197 32C46.7195 40.1294 40.1294 46.7206 32 46.7207C23.8706 46.7206 17.2805 40.1294 17.2803 32V3.58008C17.908 3.25432 18.5481 2.94957 19.1992 2.66504V32.001C19.1997 39.0695 24.9305 44.8003 31.999 44.8008C39.068 44.8008 44.7993 39.0698 44.7998 32.001C44.7998 24.9317 39.0683 19.2012 31.999 19.2012V25.6006C35.5336 25.6006 38.3994 28.4664 38.3994 32.001C38.3989 35.5352 35.5334 38.4004 31.999 38.4004C28.4651 38.3999 25.6001 35.5349 25.5996 32.001V0.640625C27.6677 0.2208 29.8081 0 32 0Z" fill="#F0000A"/>
</svg>
