<svg width="165" height="32" viewBox="0 0 165 32" fill="none" xmlns="http://www.w3.org/2000/svg">
<path d="M39.1445 13.7149H41.3921V24.9463H45.138V10.3894H39.1445V13.7149ZM47.6353 17.6678C47.6353 22.311 50.7569 25.3855 55.0648 25.3855C56.3134 25.3855 57.6869 25.1973 58.998 24.3188V20.1776C58.2488 20.9306 57.0626 21.7463 55.5642 21.7463C53.2542 21.7463 51.8807 19.9894 51.8807 17.7933C51.8807 15.409 53.3791 13.5894 55.5642 13.5894C57.125 13.5894 58.2488 14.4678 58.998 15.3463V11.1424C57.7493 10.3267 56.3134 9.9502 55.0023 9.9502C51.0067 9.9502 47.6353 12.7737 47.6353 17.6678ZM76.5415 16.0365H74.4188V13.8404H81.0366V10.3267H70.3607V24.8835H76.5415C77.6028 24.8835 82.2228 24.9463 82.2228 20.3659C82.2228 16.0365 77.6028 16.0365 76.5415 16.0365ZM76.1044 21.9973H74.3563V18.9855H76.1044C77.4155 18.9855 78.1647 19.362 78.1647 20.4914C78.1647 21.6208 77.4155 21.9973 76.1044 21.9973ZM88.2163 19.111V10.3894H84.2831V24.9463H88.2787L93.8976 16.2247V24.9463H97.8308V10.3894H93.8352L88.2163 19.111ZM99.4541 13.8404H102.638V24.8835H106.696V13.8404H109.88V10.3267H99.4541V13.8404ZM117.684 10.3894H111.566V24.9463H115.624V20.1149H117.684C121.805 20.1149 122.991 17.2286 122.991 15.2208C122.929 13.2129 121.805 10.3894 117.684 10.3894ZM116.748 16.9149H115.562V13.5894H116.748C118.496 13.5894 118.746 14.5306 118.746 15.2835C118.746 15.8482 118.558 16.9149 116.748 16.9149ZM128.548 19.111V10.3894H124.614V24.9463H128.61L134.229 16.2247V24.9463H138.162V10.3894H134.166L128.548 19.111ZM153.708 10.3894H148.963L144.593 16.4757V10.3894H140.535V24.9463H144.593V18.6718L148.776 24.9463H153.833L148.151 17.4169L153.708 10.3894ZM161.137 13.5894C162.698 13.5894 163.822 14.4678 164.571 15.3463V11.1424C163.322 10.3267 161.886 9.9502 160.575 9.9502C156.642 9.9502 153.208 12.7737 153.208 17.6678C153.208 22.311 156.33 25.3855 160.638 25.3855C161.886 25.3855 163.26 25.1973 164.571 24.3188V20.1776C163.822 20.9306 162.636 21.7463 161.137 21.7463C158.827 21.7463 157.454 19.9894 157.454 17.7933C157.454 15.3463 158.89 13.5894 161.137 13.5894ZM64.6169 15.3463C63.3058 15.3463 62.2445 16.4129 62.2445 17.7306C62.2445 19.0482 63.3058 20.1149 64.6169 20.1149C65.928 20.1149 66.9893 19.0482 66.9893 17.7306C66.9893 16.4129 65.928 15.3463 64.6169 15.3463Z" fill="#181A1F"/>
<mask id="mask0_40_5235" style="mask-type:alpha" maskUnits="userSpaceOnUse" x="0" y="0" width="32" height="32">
<circle cx="16" cy="16" r="16" fill="#C4C4C4"/>
</mask>
<g mask="url(#mask0_40_5235)">
<path d="M16 0C14.8078 0 13.6157 0.12549 12.549 0.376471V16C12.549 17.9451 14.1176 19.451 16 19.451C17.9451 19.451 19.451 17.8824 19.451 16C19.451 14.1804 18.0078 12.6745 16.1882 12.549V9.78823C19.5137 9.91372 22.2118 12.6745 22.2118 16.0627C22.2118 19.5137 19.3882 22.3373 15.9373 22.3373C12.4863 22.3373 9.66275 19.5137 9.66275 16.0627V1.2549C9.28627 1.44314 8.9098 1.63137 8.53333 1.81961V16C8.53333 20.0784 11.8588 23.4039 15.9373 23.4039C20.0157 23.4039 23.3412 20.0784 23.3412 16C23.3412 11.9843 20.1412 8.72157 16.1255 8.59608V5.83529C21.6471 5.96078 26.102 10.4784 26.102 16.0627C26.102 21.7098 21.5216 26.2902 15.8745 26.2902C10.2275 26.2902 5.64706 21.7098 5.64706 16.0627V3.63922C2.25882 6.58823 0 11.0431 0 16C0 24.8471 7.15294 32 16 32C24.8471 32 32 24.8471 32 16C32 7.15294 24.8471 0 16 0Z" fill="#F0000A"/>
</g>
</svg>
