<svg width="124" height="22" viewBox="0 0 124 22" fill="none" xmlns="http://www.w3.org/2000/svg">
<path d="M3.17847 13.6421V8.60717H4.40022C5.48279 8.60717 6.37977 8.73035 7.01384 9.09989C7.67885 9.46943 8.03455 10.1469 8.03455 11.1478C8.03455 12.8569 6.98291 13.6575 4.5858 13.6575H3.17847V13.6421ZM0.224609 16.0595H4.52394C9.28723 16.0595 11.0348 13.9655 11.0348 11.0708C11.0348 9.09989 10.1997 7.79111 8.76142 7.02124C7.61699 6.40534 6.11686 6.22057 4.35383 6.22057H3.17847V2.3866H9.64293L10.4317 0H0.224609V16.0595ZM12.9834 16.0595H15.8136L19.4324 10.8706C20.1129 9.90056 20.6542 8.99211 20.9789 8.4532H21.0253C20.9789 9.13068 20.9326 10.0083 20.9326 10.9322V16.0441H23.7936V4.54225H20.9635L17.3446 9.73119C16.6796 10.7012 16.1229 11.6097 15.7981 12.1486H15.7517C15.7981 11.4711 15.8445 10.5934 15.8445 9.6696V4.54225H12.9834V16.0595ZM28.7116 16.0595H31.619V6.94425H35.0368L35.7946 4.52685H25.1855V6.94425H28.7116V16.0595ZM36.8617 21.8182H39.7692V16.0287C40.3259 16.1981 40.9446 16.2905 41.5477 16.2905C45.1666 16.2905 47.5637 13.7807 47.5637 10.2547C47.5637 6.57471 45.3831 4.2343 41.2229 4.2343C39.63 4.2343 38.1144 4.52685 36.8463 4.95798V21.8182H36.8617ZM39.7692 13.5959V6.82107C40.2022 6.69789 40.6198 6.6209 41.1456 6.6209C43.2179 6.6209 44.5944 7.79111 44.5944 10.2547C44.5944 12.4719 43.4963 13.8885 41.3467 13.8885C40.728 13.8885 40.2796 13.7961 39.7692 13.5959ZM49.2803 16.0595H52.1105L55.7293 10.8706C56.4098 9.90056 56.9511 8.99211 57.2758 8.4532H57.3222C57.2758 9.13068 57.2294 10.0083 57.2294 10.9322V16.0441H60.0905V4.54225H57.2604L53.6415 9.73119C52.9765 10.7012 52.4198 11.6097 52.095 12.1486H52.0486C52.095 11.4711 52.1414 10.5934 52.1414 9.6696V4.54225H49.2803V16.0595ZM62.3639 16.0595H65.2714V11.2863H67.0035C67.3437 11.2863 67.6685 11.6097 68.0087 12.3795L69.4779 16.0595H72.6328L70.5295 11.6559C70.1584 10.9014 69.7717 10.4703 69.1841 10.2393V10.1931C70.1584 9.60801 70.2666 7.96048 70.8543 7.14441C71.0554 6.89806 71.3183 6.77488 71.6585 6.77488C71.875 6.77488 72.1225 6.80567 72.3235 6.86726V4.40367C71.9833 4.28049 71.442 4.2343 71.1172 4.2343C70.112 4.2343 69.447 4.61923 68.983 5.25053C68.0242 6.6363 68.0551 9.0537 66.6168 9.0537H65.2714V4.54225H62.3639V16.0595ZM79.1746 16.2905C80.7675 16.2905 82.2058 15.7978 83.1337 15.1665L82.2831 13.1648C81.4789 13.5959 80.6747 13.9501 79.5922 13.9501C77.6126 13.9501 76.3135 12.6567 76.3135 10.3009C76.3135 8.17604 77.5817 6.57471 79.7313 6.57471C80.8603 6.57471 81.7418 6.89806 82.546 7.48316V5.01957C81.9274 4.63463 80.8758 4.2343 79.4375 4.2343C75.9888 4.2343 73.3287 6.79027 73.3287 10.3779C73.3287 13.7191 75.4011 16.2905 79.1746 16.2905Z" fill="#00BEF2"/>
<path d="M90.2568 0C93.7295 0 95.4121 1.78943 95.4121 4.22656C95.412 8.79204 89.1618 9.67143 88.1582 13.7432H95.5508V16.2422H84.3457C84.9941 8.1598 92.2941 7.91294 92.3096 4.51953C92.3096 3.02347 91.1215 2.46789 89.8252 2.46777C88.1892 2.46777 86.8458 3.00818 85.6729 3.56348L84.8857 1.2959C86.1976 0.663489 88.0652 2.40106e-05 90.2568 0ZM105.953 0.0458984V9.91797H108.346V12.3086H105.953V16.2422H103.067V12.3086H95.8906V10.3652L103.854 0.0458984H105.953ZM117.558 0C121.037 4.10322e-05 123.861 2.82319 123.861 6.30273C123.861 9.78241 121.037 12.6064 117.558 12.6064C114.084 12.6063 111.238 9.7877 111.255 6.2998C111.257 2.82169 114.079 0.000178043 117.558 0ZM117.558 1.4541C114.882 1.45427 112.711 3.62522 112.71 6.30078C112.697 8.98376 114.886 11.1512 117.558 11.1514C120.234 11.1513 122.406 8.9794 122.406 6.30273C122.406 3.6262 120.234 1.45414 117.558 1.4541ZM99.1318 9.96484C99.5025 9.96482 100.567 9.91797 101.169 9.91797H103.067V7.62012C103.067 6.32481 103.175 4.93679 103.206 4.47363L99.1318 9.96484ZM118.089 6.30273H121.437V7.27246H117.073V3.39355H118.089V6.30273Z" fill="#006198"/>
</svg>
