<svg width="90" height="90" viewBox="0 0 90 90" fill="none" xmlns="http://www.w3.org/2000/svg">
<mask id="mask0_141_18" style="mask-type:alpha" maskUnits="userSpaceOnUse" x="0" y="0" width="90" height="90">
<circle cx="45" cy="45" r="45" fill="#49BAFC"/>
</mask>
<g mask="url(#mask0_141_18)">
<circle cx="45" cy="45" r="45" fill="#383C42"/>
<path d="M44.3512 102.96C36.6548 102.96 30.4131 96.7183 30.4131 89.0219V59.3551H58.2894V89.0219C58.2894 96.7183 52.0477 102.96 44.3512 102.96Z" fill="#FFC1B7"/>
<path d="M30.4004 68.7798C30.4004 68.7798 38.072 83.0413 46.8377 82.3325C60.3904 81.2508 58.1399 64.4653 58.1399 64.4653C58.1399 64.4653 52.8805 75.6681 44.5748 75.6805C35.2993 75.6805 30.4004 68.7798 30.4004 68.7798Z" fill="#D26665"/>
<path d="M23.55 49.06L22.1575 34.9602C20.367 25.9458 27.4045 21.1837 33.5467 21.1837H54.8456C61.3733 21.1837 69.1319 25.9085 65.8246 36.0792L63.9222 51.4472L23.5376 49.0724L23.55 49.06Z" fill="#181A1F"/>
<path d="M62.4922 56.7937C66.7072 59.9146 74.0182 45.7277 69.9026 42.3706C65.7871 39.0135 63.0641 45.1682 63.0641 45.1682L62.9646 50.3779L62.3554 55.2644L62.1191 56.7688L62.4797 56.7937H62.4922Z" fill="#FFC1B7"/>
<path d="M68.759 46.6478C68.759 46.6478 65.7003 45.6283 63.5244 50.1292" stroke="#D26665" stroke-width="0.833057" stroke-linecap="round" stroke-linejoin="round"/>
<path d="M65.0166 47.9285C65.0166 47.9285 68.3488 49.7065 66.1481 52.3797" stroke="#D26665" stroke-width="0.833057" stroke-linecap="round" stroke-linejoin="round"/>
<path d="M25.6262 56.7938C21.4112 59.9146 14.1002 45.7278 18.2157 42.3707C22.3313 39.0136 24.9175 45.2304 24.9175 45.2304L25.1537 50.378L25.763 55.2644L25.9992 56.7689L25.6386 56.7938H25.6262Z" fill="#FFC1B7"/>
<path d="M19.3477 46.6478C19.3477 46.6478 22.4063 45.6283 24.5822 50.1292" stroke="#D26665" stroke-width="0.833057" stroke-linecap="round" stroke-linejoin="round"/>
<path d="M23.1029 47.9285C23.1029 47.9285 19.7707 49.7065 21.9714 52.3797" stroke="#D26665" stroke-width="0.833057" stroke-linecap="round" stroke-linejoin="round"/>
<path d="M63.8726 38.5038C63.8726 47.282 62.7039 54.8665 61.5351 60.2379C60.3912 65.4973 57.1833 70.0978 52.645 73.057L51.8244 73.5917C47.025 76.7249 40.8206 76.7996 35.9466 73.7782C31.0353 70.7319 27.5912 65.7957 26.5343 60.1508C24.6071 49.8806 24.3957 38.4914 24.3957 38.4914C24.3957 38.4914 22.568 16.3221 43.8544 16.7573C65.1409 17.1925 63.8726 38.4914 63.8726 38.4914V38.5038Z" fill="#FFC1B7"/>
<path d="M64.1587 13.3878C57.3947 8.6008 44.0285 11.9455 36.7424 15.2901C36.8916 13.1142 35.5612 13.3505 35.5612 13.3505C22.7545 16.7946 26.1116 26.8907 26.1116 26.8907C26.1116 26.8907 26.1613 26.9156 26.2359 26.9529C24.8931 29.8624 23.1648 36.0419 24.8061 47.2571C24.8061 47.2571 28.2004 35.1343 28.2999 27.8979C33.9821 30.4095 49.5615 36.502 59.7198 33.0951C60.727 39.2747 63.3878 47.2571 63.3878 47.2571C64.4571 39.9958 64.0094 34.811 63.2883 31.3171C63.91 30.882 64.5068 30.397 65.0539 29.8251C65.0539 29.8251 73.7575 20.1766 64.1711 13.4002L64.1587 13.3878Z" fill="#181A1F"/>
<path d="M42.2744 46.9836V54.1329C42.2744 54.3692 42.3241 54.6054 42.4112 54.8168C42.7469 55.6499 43.6919 56.0477 44.5622 55.8115L46.4148 55.3141" stroke="#D26665" stroke-width="0.833057" stroke-linecap="round" stroke-linejoin="round"/>
<path d="M37 45C37 46.1007 36.1007 47 35 47C33.8993 47 33 46.1007 33 45C33 43.8993 33.8993 43 35 43C36.1007 43 37 43.8993 37 45Z" fill="#181A1F"/>
<path d="M55 45C55 46.1007 54.1007 47 53 47C51.8993 47 51 46.1007 51 45C51 43.8993 51.8993 43 53 43C54.1007 43 55 43.8993 55 45Z" fill="#181A1F"/>
<path d="M38.5321 47.0209L33.9316 50.0547" stroke="#D26665" stroke-width="0.634118" stroke-linecap="round" stroke-linejoin="round"/>
<path d="M49.3867 46.996L53.4525 50.0672" stroke="#D26665" stroke-width="0.634118" stroke-linecap="round" stroke-linejoin="round"/>
<path d="M43.9404 69.3145V71.3163" stroke="#D26665" stroke-width="0.634118" stroke-linecap="round" stroke-linejoin="round"/>
<path d="M39.8746 37.6058L39.9492 34L33.2599 34.1243C32.4144 34.1368 31.6062 34.4476 30.9596 34.9823L28.2988 38.0409L32.7252 37.382L39.8746 37.6058Z" fill="#181A1F"/>
<path d="M47.6957 37.6058L47.6211 34L54.3104 34.1243C55.1559 34.1368 55.9641 34.4476 56.6106 34.9823L59.2715 38.0409L54.8451 37.382L47.6957 37.6058Z" fill="#181A1F"/>
<mask id="mask1_141_18" style="mask-type:alpha" maskUnits="userSpaceOnUse" x="36" y="58" width="15" height="5">
<path d="M36 58H51C51 58 50.2145 63 43.3192 63C36.4239 63 36 58 36 58Z" fill="#D26665"/>
</mask>
<g mask="url(#mask1_141_18)">
<path d="M36 58H51C51 58 50.2145 63 43.3192 63C36.4239 63 36 58 36 58Z" fill="#D26665"/>
<path d="M36 57H51C51 57 50.2145 59 43.3192 59C36.4239 59 36 57 36 57Z" fill="white"/>
</g>
<path opacity="0.19" d="M61.9575 46.8841C61.9575 51.2981 58.3766 54.879 53.9626 54.879C49.5487 54.879 45.9678 51.2981 45.9678 46.8841C45.9678 42.4702 49.5487 38.8893 53.9626 38.8893C58.3766 38.8893 61.9575 42.4702 61.9575 46.8841Z" fill="white"/>
<path opacity="0.19" d="M42.2993 46.8841C42.2993 51.2981 38.7184 54.879 34.3044 54.879C29.8905 54.879 26.3096 51.2981 26.3096 46.8841C26.3096 42.4702 29.8905 38.8893 34.3044 38.8893C38.7184 38.8893 42.2993 42.4702 42.2993 46.8841Z" fill="white"/>
<path d="M42.2993 46.8841C42.2993 51.2981 38.7184 54.879 34.3044 54.879C29.8905 54.879 26.3096 51.2981 26.3096 46.8841C26.3096 42.4702 29.8905 38.8893 34.3044 38.8893C38.7184 38.8893 42.2993 42.4702 42.2993 46.8841Z" stroke="#181A1F" stroke-width="0.534648" stroke-linecap="round" stroke-linejoin="round"/>
<path d="M61.9575 46.8841C61.9575 51.2981 58.3766 54.879 53.9626 54.879C49.5487 54.879 45.9678 51.2981 45.9678 46.8841C45.9678 42.4702 49.5487 38.8893 53.9626 38.8893C58.3766 38.8893 61.9575 42.4702 61.9575 46.8841Z" stroke="#181A1F" stroke-width="0.534648" stroke-linecap="round" stroke-linejoin="round"/>
<path d="M42.2998 46.8841C42.2998 46.8841 44.1897 45.1185 45.9553 46.8841" stroke="#181A1F" stroke-width="0.534648" stroke-linecap="round" stroke-linejoin="round"/>
<path d="M26.2972 46.8841H24.9668" stroke="#181A1F" stroke-width="0.534648" stroke-miterlimit="10"/>
<path d="M63.5238 46.8841H62.1934" stroke="#181A1F" stroke-width="0.534648" stroke-miterlimit="10"/>
</g>
</svg>
